<svg id="_x33_0" enable-background="new 0 0 64 64" height="512" viewBox="0 0 64 64" width="512" xmlns="http://www.w3.org/2000/svg"><g><g><g><path d="m40.01 11.76c.62-.33 1.29-.58 1.99-.76-1.33 3.32-2.22 6.8-2.67 10.34l-.29 2.32c-.46-.11-.93-.2-1.41-.24l-2.25-.2-.01.01c-.24-.22-.49-.39-.76-.54-.43-.25-.91-.44-1.4-.55l.79-3.14-.29-.29c-.46-.46-1.07-.71-1.71-.71s-1.25.25-1.71.71l-.29.29c-.66-2.64-1.84-5.12-3.47-7.3l-.53-.7h.53c1.62 0 3.16.54 4.4 1.51l.01-.01c-.2-2.91-.85-5.78-1.94-8.5l1.17.59c1.81.9 3.19 2.49 3.83 4.41.64-1.58 1.6-2.99 2.82-4.13 1.21-1.15 2.67-2.03 4.29-2.57l.89-.3c-1.24 3.11-1.92 6.42-1.99 9.76z" fill="#b4dd7f"/></g><g><path d="m32 18c.64 0 1.25.25 1.71.71l.29.29-.79 3.14c-.39-.09-.8-.14-1.21-.14l-1.21.14-.79-3.14.29-.29c.46-.46 1.07-.71 1.71-.71z" fill="#a0d468"/></g><g><path d="m23.99 17.16-.47 7v.01c-2.48 1.1-4.38 3.3-5.07 6.03l-.45 1.8h-3l-.75-11.25-.09-1.37-.15-2.22c-.01-.11-.01-.21-.01-.32 0-1.43.63-2.72 1.62-3.61.63-.57 1.42-.97 2.28-1.14.31-.06.62-.09.94-.09h.32c.32 0 .63.03.94.09.86.17 1.64.57 2.28 1.14.07.06.14.13.2.19.88.88 1.42 2.08 1.42 3.42 0 .11 0 .21-.01.32z" fill="#ff826e"/></g><g><path d="m14.25 20.75.75 11.25h-1l-6.36-5.57c-1.04-.91-1.64-2.22-1.64-3.61v-.03c0-.74.17-1.44.48-2.07.21-.46.51-.89.86-1.25.45-.46.99-.84 1.59-1.09.57-.24 1.2-.38 1.86-.38 1.27 0 2.48.5 3.37 1.38z" fill="#ff826e"/></g><g><path d="m8.93 18.38c-.6.25-1.14.63-1.59 1.09l-1.87-4.37c-.27-.62-.84-1.03-1.49-1.09v-.01l.01-1.88c.01-1.17.96-2.12 2.13-2.12 1.07 0 1.97.8 2.09 1.87z" fill="#b4dd7f"/></g><g><path d="m3.81 14 .17.01c.65.06 1.22.47 1.49 1.09l1.87 4.37c-.35.36-.65.79-.86 1.25h-.01l-3.73-3.11c-.47-.39-.74-.96-.74-1.57v-.23c0-1 .81-1.81 1.81-1.81z" fill="#b4dd7f"/></g><g><path d="m26 5.62c0 .25-.06.5-.17.72l-3.45 6.89c-.64-.57-1.42-.97-2.28-1.14l.55-4.96 1.86-2.48c.31-.41.79-.65 1.3-.65h.57c.9 0 1.62.72 1.62 1.62z" fill="#b4dd7f"/></g><g><path d="m21 3.9c0 .06 0 .13-.01.2l-.34 3.03-.55 4.96c-.31-.06-.62-.09-.94-.09h-.32c-.32 0-.63.03-.94.09l-.55-4.96-.34-3.03c-.01-.07-.01-.14-.01-.2 0-1.05.85-1.9 1.9-1.9h.2c1.05 0 1.9.85 1.9 1.9z" fill="#b4dd7f"/></g><g><path d="m17.35 7.13.55 4.96c-.86.17-1.65.57-2.28 1.14l-3.45-6.89c-.11-.22-.17-.47-.17-.72 0-.9.72-1.62 1.62-1.62h.57c.51 0 .99.24 1.3.65z" fill="#b4dd7f"/></g><g><path d="m28.63 23.23c-.46.36-.86.82-1.17 1.34-.96 1.59-1.46 3.41-1.46 5.26v2.17h-8l.45-1.8c.69-2.73 2.59-4.93 5.07-6.03.88-.4 1.84-.66 2.85-.75l2.25-.2z" fill="#fcd770"/></g><g><path d="m39.04 23.66c3.17.81 5.7 3.3 6.51 6.54l.45 1.8h-8v-2.17c0-1.85-.5-3.67-1.46-5.26l-1.17-1.34.01-.01 2.25.2c.48.04.95.13 1.41.24z" fill="#fcd770"/></g><g><path d="m33.21 22.14c.49.11.97.3 1.4.55.27.15.52.32.76.54l1.17 1.34c.96 1.59 1.46 3.41 1.46 5.26v2.17h-12v-2.17c0-1.85.5-3.67 1.46-5.26.31-.52.71-.98 1.17-1.34.24-.22.49-.39.76-.54.43-.25.91-.44 1.4-.55l1.21-.14c.41 0 .82.05 1.21.14z" fill="#fcd770"/></g><g><path d="m60 2c1.1 0 2 .9 2 2 0 .55-.22 1.05-.59 1.41-.36.37-.86.59-1.41.59h-6v-4z" fill="#e6e9ed"/></g><g><path d="m48 42c-.69 0-1.36.07-2 .2v-.2-4-6-24c0-3.31 2.69-6 6-6h2v4h-2c-1.1 0-2 .9-2 2v34.2c-.64-.13-1.31-.2-2-.2z" fill="#aab2bd"/></g><g><path d="m8 38h38v4h-38z" fill="#dfb28b"/></g><g><path d="m42 60h-35c-.55 0-1-.45-1-1v-5h32.2c.5 2.44 1.88 4.56 3.8 6z" fill="#d3a06c"/></g><g><path d="m8 42h38v.2c-4.56.93-8 4.97-8 9.8 0 .69.07 1.36.2 2h-32.2v-11c0-.55.45-1 1-1z" fill="#d3a06c"/></g><g><path d="m15 32h3 8 12 8v6h-38-1c-.55 0-1-.45-1-1v-4c0-.55.45-1 1-1h7z" fill="#d3a06c"/></g><g><path d="m50 42.2c4.56.93 8 4.97 8 9.8 0 5.52-4.48 10-10 10-2.25 0-4.33-.75-6-2-1.92-1.44-3.3-3.56-3.8-6-.13-.64-.2-1.31-.2-2 0-4.83 3.44-8.87 8-9.8.64-.13 1.31-.2 2-.2s1.36.07 2 .2zm4 9.8c0-3.31-2.69-6-6-6s-6 2.69-6 6 2.69 6 6 6 6-2.69 6-6z" fill="#969faa"/></g><g><path d="m48 46c3.31 0 6 2.69 6 6s-2.69 6-6 6-6-2.69-6-6 2.69-6 6-6zm2 6c0-1.1-.9-2-2-2s-2 .9-2 2 .9 2 2 2 2-.9 2-2z" fill="#ccd1d9"/></g></g><g><path d="m45 52c0 1.654 1.346 3 3 3s3-1.346 3-3-1.346-3-3-3-3 1.346-3 3zm4 0c0 .552-.449 1-1 1s-1-.448-1-1 .449-1 1-1 1 .448 1 1z"/><path d="m41 52c0 3.859 3.14 7 7 7s7-3.141 7-7-3.14-7-7-7-7 3.141-7 7zm12 0c0 2.757-2.243 5-5 5s-5-2.243-5-5 2.243-5 5-5 5 2.243 5 5z"/><path d="m60 1h-8c-3.86 0-7 3.14-7 7v18.646c-1.192-1.697-2.89-2.994-4.862-3.69l.186-1.488c.433-3.459 1.309-6.856 2.604-10.097l.726-1.815-1.897.474c-.22.055-.432.13-.647.2.216-2.696.809-5.335 1.818-7.858l.8-2.001-2.937.978c-2.85.95-5.235 2.866-6.773 5.388-.829-1.291-1.992-2.34-3.4-3.044l-3.524-1.763.977 2.442c.81 2.024 1.362 4.13 1.662 6.28-.994-.419-2.077-.652-3.205-.652h-1.41l1.605-3.211c.181-.362.277-.767.277-1.171 0-1.444-1.174-2.618-2.618-2.618h-.573c-.687 0-1.337.287-1.823.762-.071-1.533-1.33-2.762-2.881-2.762h-.21c-1.551 0-2.81 1.229-2.882 2.762-.485-.475-1.135-.762-1.822-.762h-.573c-1.444 0-2.618 1.174-2.618 2.618 0 .404.096.809.276 1.171l3.13 6.26c-.874 1.021-1.406 2.343-1.406 3.79 0 .13.004.26.013.388l.015.222c-.699-.292-1.454-.449-2.233-.449-.342 0-.675.036-1.001.093l-.593-5.335c-.174-1.572-1.499-2.758-3.08-2.758-1.719 0-3.123 1.398-3.129 3.117l-.004 1.02c-1.147.353-1.988 1.41-1.988 2.671v.235c0 .906.399 1.758 1.095 2.338l3.185 2.654c-.18.564-.28 1.164-.28 1.789 0 1.671.721 3.261 1.979 4.361l4.36 3.815h-4.339c-1.103 0-2 .897-2 2v4c0 1.103.897 2 2 2v2c-1.103 0-2 .897-2 2v16c0 1.103.897 2 2 2h34.695c1.787 1.256 3.959 2 6.305 2 6.065 0 11-4.935 11-11 0-5.024-3.39-9.263-8-10.574v-33.426c0-.551.449-1 1-1h8c1.654 0 3-1.346 3-3s-1.346-3-3-3zm-15.42 29.444.139.556h-5.719v-1.169c0-1.895-.499-3.749-1.411-5.406 3.364.326 6.171 2.737 6.991 6.019zm-28.645.556-.927-13.908c-.006-.084-.008-.169-.008-.253 0-2.117 1.722-3.839 3.839-3.839h.322c2.117 0 3.839 1.722 3.839 3.839 0 .084-.002.169-.008.255l-.428 6.422c-2.486 1.297-4.376 3.612-5.084 6.443l-.261 1.041zm3.485-.556c.82-3.282 3.627-5.694 6.991-6.019-.912 1.657-1.411 3.511-1.411 5.406v1.169h-5.719zm7.58-.613c0-1.671.455-3.311 1.314-4.744.772-1.287 2.185-2.087 3.686-2.087s2.914.8 3.686 2.087c.859 1.433 1.314 3.073 1.314 4.744v1.169h-10zm4.11-10.516c.5-.403 1.28-.403 1.78 0l-.429 1.715c-.153-.011-.306-.03-.461-.03s-.308.019-.462.031zm.995-3.868 1.789-.895c-.501-1.003-1.19-1.863-2.003-2.563-.164-1.98-.522-3.933-1.085-5.833 1.041.798 1.821 1.887 2.245 3.159l.863 2.59 1.014-2.535c1.017-2.541 2.956-4.567 5.412-5.697-.767 2.427-1.193 4.94-1.3 7.494-1.602.964-2.923 2.361-3.778 4.072l-.156.312 1.788.896.157-.313c.723-1.447 1.857-2.621 3.239-3.392-.936 2.751-1.59 5.593-1.95 8.477l-.158 1.265c-.152-.021-.303-.046-.457-.06l-1.973-.179c-.414-.307-.865-.562-1.341-.76l.698-2.793-.695-.692c-1.007-1.008-2.595-1.217-3.859-.65-.59-1.823-1.406-3.551-2.459-5.152 1.722.442 3.187 1.604 4.009 3.249zm-6.378-3.145c1.561 2.082 2.672 4.417 3.303 6.941l.561 2.243c-.476.198-.927.453-1.341.76l-1.973.179c-.566.051-1.118.154-1.655.296l.366-5.492c.009-.13.013-.26.013-.39 0-1.447-.532-2.769-1.406-3.79l1.077-2.154zm-2.413-7.055c.117-.155.302-.247.495-.247h.573c.341 0 .618.277.618.618 0 .095-.022.191-.065.276l-2.926 5.852c-.262-.147-.537-.271-.822-.376l.429-3.857zm-4.419-2.247h.21c.494 0 .895.401.89.994l-.779 7.009c-.018 0-.036-.003-.055-.003h-.322c-.018 0-.036.003-.054.003l-.785-7.108c0-.494.401-.895.895-.895zm-5.895 2.618c0-.341.277-.618.618-.618h.573c.193 0 .378.092.495.247l1.699 2.265.428 3.857c-.284.106-.56.23-.822.376l-2.926-5.852c-.043-.084-.065-.18-.065-.275zm-6.879 5.382c.561 0 1.031.42 1.093.978l.648 5.829c-.038.022-.075.045-.113.069l-1.36-3.175c-.279-.651-.785-1.155-1.401-1.441l.004-1.136c.002-.62.508-1.124 1.129-1.124zm-3.121 5.043v-.235c0-.446.362-.808.808-.808.323 0 .615.192.743.49l1.556 3.63-2.731-2.275c-.239-.199-.376-.491-.376-.802zm4 6.752c0-2.093 1.703-3.795 3.795-3.795.886 0 1.718.318 2.395.874l.033.49-3.929 3.929 1.414 1.414 2.692-2.692.505 7.572-5.61-4.907c-.823-.72-1.295-1.761-1.295-2.885zm0 10.205h38v4h-38zm2 6h36v2h-36zm32.695 4c-2.834 1.992-4.695 5.28-4.695 9 0 .338.021.67.051 1h-30.051v-10zm-34.695 12h30.426c.421 1.483 1.138 2.842 2.095 4h-32.521zm50-3c0 4.963-4.038 9-9 9s-9-4.037-9-9 4.038-9 9-9 9 4.037 9 9zm-8-44v33.051c-.33-.03-.662-.051-1-.051s-.67.021-1 .051v-33.051c0-2.757 2.243-5 5-5h1v2h-1c-1.654 0-3 1.346-3 3zm11-3h-5v-2h5c.551 0 1 .449 1 1s-.449 1-1 1z"/><path d="m17 17h4v2h-4z"/><path d="m17 21h4v2h-4z"/></g></g></svg>